# Blender 4.1.0
# www.blender.org
o Cube.001
v 0.500000 0.003500 -0.653400
v 0.453400 0.003500 -0.700000
v 0.499776 0.003500 -0.657968
v 0.499105 0.003500 -0.662491
v 0.497993 0.003500 -0.666927
v 0.496453 0.003500 -0.671233
v 0.494498 0.003500 -0.675367
v 0.492146 0.003500 -0.679290
v 0.489422 0.003500 -0.682963
v 0.486351 0.003500 -0.686351
v 0.482963 0.003500 -0.689422
v 0.479290 0.003500 -0.692146
v 0.475367 0.003500 -0.694498
v 0.471233 0.003500 -0.696453
v 0.466927 0.003500 -0.697993
v 0.462491 0.003500 -0.699105
v 0.457968 0.003500 -0.699776
v 0.453400 -0.003500 -0.700000
v 0.500000 -0.003500 -0.653400
v 0.457968 -0.003500 -0.699776
v 0.462491 -0.003500 -0.699105
v 0.466927 -0.003500 -0.697993
v 0.471233 -0.003500 -0.696453
v 0.475367 -0.003500 -0.694498
v 0.479290 -0.003500 -0.692146
v 0.482963 -0.003500 -0.689422
v 0.486351 -0.003500 -0.686351
v 0.489422 -0.003500 -0.682963
v 0.492146 -0.003500 -0.679290
v 0.494498 -0.003500 -0.675367
v 0.496453 -0.003500 -0.671233
v 0.497993 -0.003500 -0.666927
v 0.499105 -0.003500 -0.662491
v 0.499776 -0.003500 -0.657968
v 0.453400 0.003500 0.700000
v 0.500000 0.003500 0.653400
v 0.457968 0.003500 0.699776
v 0.462491 0.003500 0.699105
v 0.466927 0.003500 0.697993
v 0.471233 0.003500 0.696453
v 0.475367 0.003500 0.694498
v 0.479290 0.003500 0.692146
v 0.482963 0.003500 0.689422
v 0.486351 0.003500 0.686351
v 0.489422 0.003500 0.682963
v 0.492146 0.003500 0.679290
v 0.494498 0.003500 0.675367
v 0.496453 0.003500 0.671233
v 0.497993 0.003500 0.666927
v 0.499105 0.003500 0.662491
v 0.499776 0.003500 0.657968
v 0.500000 -0.003500 0.653400
v 0.453400 -0.003500 0.700000
v 0.499776 -0.003500 0.657968
v 0.499105 -0.003500 0.662491
v 0.497993 -0.003500 0.666927
v 0.496453 -0.003500 0.671233
v 0.494498 -0.003500 0.675367
v 0.492146 -0.003500 0.679290
v 0.489422 -0.003500 0.682963
v 0.486351 -0.003500 0.686351
v 0.482963 -0.003500 0.689422
v 0.479290 -0.003500 0.692146
v 0.475367 -0.003500 0.694498
v 0.471233 -0.003500 0.696453
v 0.466927 -0.003500 0.697993
v 0.462491 -0.003500 0.699105
v 0.457968 -0.003500 0.699776
v -0.453400 0.003500 -0.700000
v -0.500000 0.003500 -0.653400
v -0.457968 0.003500 -0.699776
v -0.462491 0.003500 -0.699105
v -0.466927 0.003500 -0.697993
v -0.471233 0.003500 -0.696453
v -0.475367 0.003500 -0.694498
v -0.479290 0.003500 -0.692146
v -0.482963 0.003500 -0.689422
v -0.486351 0.003500 -0.686351
v -0.489422 0.003500 -0.682963
v -0.492146 0.003500 -0.679290
v -0.494498 0.003500 -0.675367
v -0.496453 0.003500 -0.671233
v -0.497993 0.003500 -0.666927
v -0.499105 0.003500 -0.662491
v -0.499776 0.003500 -0.657968
v -0.500000 -0.003500 -0.653400
v -0.453400 -0.003500 -0.700000
v -0.499776 -0.003500 -0.657968
v -0.499105 -0.003500 -0.662491
v -0.497993 -0.003500 -0.666927
v -0.496453 -0.003500 -0.671233
v -0.494498 -0.003500 -0.675367
v -0.492146 -0.003500 -0.679290
v -0.489422 -0.003500 -0.682963
v -0.486351 -0.003500 -0.686351
v -0.482963 -0.003500 -0.689422
v -0.479290 -0.003500 -0.692146
v -0.475367 -0.003500 -0.694498
v -0.471233 -0.003500 -0.696453
v -0.466927 -0.003500 -0.697993
v -0.462491 -0.003500 -0.699105
v -0.457968 -0.003500 -0.699776
v -0.500000 0.003500 0.653400
v -0.453400 0.003500 0.700000
v -0.499776 0.003500 0.657968
v -0.499105 0.003500 0.662491
v -0.497993 0.003500 0.666927
v -0.496453 0.003500 0.671233
v -0.494498 0.003500 0.675367
v -0.492146 0.003500 0.679290
v -0.489422 0.003500 0.682963
v -0.486351 0.003500 0.686351
v -0.482963 0.003500 0.689422
v -0.479290 0.003500 0.692146
v -0.475367 0.003500 0.694498
v -0.471233 0.003500 0.696453
v -0.466927 0.003500 0.697993
v -0.462491 0.003500 0.699105
v -0.457968 0.003500 0.699776
v -0.453400 -0.003500 0.700000
v -0.500000 -0.003500 0.653400
v -0.457968 -0.003500 0.699776
v -0.462491 -0.003500 0.699105
v -0.466927 -0.003500 0.697993
v -0.471233 -0.003500 0.696453
v -0.475367 -0.003500 0.694498
v -0.479290 -0.003500 0.692146
v -0.482963 -0.003500 0.689422
v -0.486351 -0.003500 0.686351
v -0.489422 -0.003500 0.682963
v -0.492146 -0.003500 0.679290
v -0.494498 -0.003500 0.675367
v -0.496453 -0.003500 0.671233
v -0.497993 -0.003500 0.666927
v -0.499105 -0.003500 0.662491
v -0.499776 -0.003500 0.657968
vn -0.0000 -1.0000 -0.0000
vn -1.0000 -0.0000 -0.0000
vn -0.0000 -0.0000 1.0000
vn -0.0000 1.0000 -0.0000
vn 1.0000 -0.0000 -0.0000
vn 0.9988 -0.0000 -0.0493
vn 0.9892 -0.0000 -0.1467
vn 0.9700 -0.0000 -0.2432
vn 0.9416 -0.0000 -0.3368
vn 0.9040 -0.0000 -0.4275
vn 0.8577 -0.0000 -0.5142
vn 0.8032 -0.0000 -0.5957
vn 0.7409 -0.0000 -0.6716
vn 0.6716 -0.0000 -0.7409
vn 0.5957 -0.0000 -0.8032
vn 0.5142 -0.0000 -0.8577
vn 0.4275 -0.0000 -0.9040
vn 0.3368 -0.0000 -0.9416
vn 0.2432 -0.0000 -0.9700
vn 0.1467 -0.0000 -0.9892
vn 0.0493 -0.0000 -0.9988
vn -0.0493 -0.0000 0.9988
vn -0.1467 -0.0000 0.9892
vn -0.2432 -0.0000 0.9700
vn -0.3368 -0.0000 0.9416
vn -0.4275 -0.0000 0.9040
vn -0.5142 -0.0000 0.8577
vn -0.5957 -0.0000 0.8032
vn -0.6716 -0.0000 0.7409
vn -0.7409 -0.0000 0.6716
vn -0.8032 -0.0000 0.5957
vn -0.8577 -0.0000 0.5142
vn -0.9040 -0.0000 0.4275
vn -0.9416 -0.0000 0.3368
vn -0.9700 -0.0000 0.2432
vn -0.9892 -0.0000 0.1467
vn -0.9988 -0.0000 0.0493
vn 0.0493 -0.0000 0.9988
vn 0.1467 -0.0000 0.9892
vn 0.2432 -0.0000 0.9700
vn 0.3368 -0.0000 0.9416
vn 0.4275 -0.0000 0.9040
vn 0.5142 -0.0000 0.8577
vn 0.5957 -0.0000 0.8032
vn 0.6716 -0.0000 0.7409
vn 0.7409 -0.0000 0.6716
vn 0.8032 -0.0000 0.5957
vn 0.8577 -0.0000 0.5142
vn 0.9040 -0.0000 0.4275
vn 0.9416 -0.0000 0.3368
vn 0.9700 -0.0000 0.2432
vn 0.9892 -0.0000 0.1467
vn 0.9988 -0.0000 0.0493
vn -0.0493 -0.0000 -0.9988
vn -0.1467 -0.0000 -0.9892
vn -0.2432 -0.0000 -0.9700
vn -0.3368 -0.0000 -0.9416
vn -0.4275 -0.0000 -0.9040
vn -0.5142 -0.0000 -0.8577
vn -0.5957 -0.0000 -0.8032
vn -0.6716 -0.0000 -0.7409
vn -0.7409 -0.0000 -0.6716
vn -0.8032 -0.0000 -0.5957
vn -0.8577 -0.0000 -0.5142
vn -0.9040 -0.0000 -0.4275
vn -0.9416 -0.0000 -0.3368
vn -0.9700 -0.0000 -0.2432
vn -0.9892 -0.0000 -0.1467
vn -0.9988 -0.0000 -0.0493
vn -0.0000 -0.0000 -1.0000
vt 1.000000 0.978368
vt 0.999896 0.980488
vt 0.999585 0.982588
vt 0.999068 0.984647
vt 0.998353 0.986646
vt 0.997446 0.988565
vt 0.996354 0.990386
vt 0.995090 0.992091
vt 0.993664 0.993664
vt 0.992091 0.995090
vt 0.990386 0.996354
vt 0.988565 0.997446
vt 0.986646 0.998353
vt 0.984647 0.999068
vt 0.982588 0.999584
vt 0.980488 0.999896
vt 0.978368 1.000000
vt 0.557425 1.000000
vt 0.555304 0.999896
vt 0.553205 0.999584
vt 0.551145 0.999068
vt 0.549147 0.998353
vt 0.547228 0.997446
vt 0.545407 0.996354
vt 0.543701 0.995090
vt 0.542129 0.993664
vt 0.540703 0.992091
vt 0.539439 0.990386
vt 0.538347 0.988565
vt 0.537439 0.986646
vt 0.536724 0.984647
vt 0.536208 0.982588
vt 0.535897 0.980488
vt 0.535793 0.978368
vt 0.535793 0.371742
vt 0.535897 0.369621
vt 0.536208 0.367522
vt 0.536724 0.365462
vt 0.537439 0.363464
vt 0.538347 0.361545
vt 0.539439 0.359723
vt 0.540703 0.358018
vt 0.542129 0.356446
vt 0.543702 0.355020
vt 0.545407 0.353756
vt 0.547228 0.352664
vt 0.549147 0.351756
vt 0.551145 0.351041
vt 0.553205 0.350525
vt 0.555304 0.350214
vt 0.557425 0.350110
vt 0.978368 0.350110
vt 0.980488 0.350214
vt 0.982588 0.350525
vt 0.984647 0.351041
vt 0.986646 0.351756
vt 0.988565 0.352664
vt 0.990386 0.353756
vt 0.992091 0.355020
vt 0.993664 0.356446
vt 0.995090 0.358018
vt 0.996354 0.359724
vt 0.997446 0.361545
vt 0.998353 0.363464
vt 0.999068 0.365462
vt 0.999585 0.367522
vt 0.999896 0.369621
vt 1.000000 0.371742
vt 0.984498 0.000001
vt 0.984498 0.001484
vt 0.707628 0.001484
vt 0.707628 0.000001
vt 0.192130 0.000000
vt 0.192130 0.001483
vt 0.000008 0.001483
vt 0.000008 0.000000
vt 0.464207 0.978368
vt 0.464103 0.980488
vt 0.463792 0.982588
vt 0.463276 0.984647
vt 0.462561 0.986646
vt 0.461653 0.988565
vt 0.460561 0.990386
vt 0.459297 0.992091
vt 0.457871 0.993664
vt 0.456299 0.995090
vt 0.454594 0.996354
vt 0.452772 0.997446
vt 0.450853 0.998354
vt 0.448855 0.999068
vt 0.446795 0.999585
vt 0.444696 0.999896
vt 0.442575 1.000000
vt 0.021632 1.000000
vt 0.019512 0.999896
vt 0.017412 0.999585
vt 0.015353 0.999068
vt 0.013354 0.998354
vt 0.011435 0.997446
vt 0.009614 0.996354
vt 0.007909 0.995090
vt 0.006336 0.993664
vt 0.004910 0.992091
vt 0.003646 0.990386
vt 0.002554 0.988565
vt 0.001647 0.986646
vt 0.000932 0.984647
vt 0.000415 0.982588
vt 0.000104 0.980488
vt 0.000000 0.978368
vt 0.000000 0.371742
vt 0.000104 0.369622
vt 0.000415 0.367522
vt 0.000932 0.365463
vt 0.001647 0.363464
vt 0.002554 0.361545
vt 0.003646 0.359724
vt 0.004910 0.358019
vt 0.006336 0.356446
vt 0.007909 0.355020
vt 0.009614 0.353756
vt 0.011435 0.352664
vt 0.013354 0.351756
vt 0.015353 0.351042
vt 0.017412 0.350525
vt 0.019512 0.350214
vt 0.021632 0.350110
vt 0.442575 0.350110
vt 0.444696 0.350214
vt 0.446795 0.350525
vt 0.448855 0.351042
vt 0.450853 0.351756
vt 0.452772 0.352664
vt 0.454594 0.353756
vt 0.456299 0.355020
vt 0.457871 0.356446
vt 0.459297 0.358019
vt 0.460561 0.359724
vt 0.461653 0.361545
vt 0.462561 0.363464
vt 0.463276 0.365463
vt 0.463792 0.367522
vt 0.464103 0.369621
vt 0.464207 0.371742
vt 0.484501 0.000001
vt 0.484501 0.001484
vt 0.207632 0.001483
vt 0.207632 0.000000
vt 0.485470 0.000001
vt 0.485470 0.001484
vt 0.486439 0.000001
vt 0.486439 0.001484
vt 0.487408 0.000001
vt 0.487408 0.001484
vt 0.488377 0.000001
vt 0.488377 0.001484
vt 0.489346 0.000001
vt 0.489346 0.001484
vt 0.490315 0.000001
vt 0.490315 0.001484
vt 0.491284 0.000001
vt 0.491284 0.001484
vt 0.492253 0.000001
vt 0.492253 0.001484
vt 0.493221 0.000001
vt 0.493221 0.001484
vt 0.494190 0.000001
vt 0.494190 0.001484
vt 0.495159 0.000001
vt 0.495159 0.001484
vt 0.496128 0.000001
vt 0.496128 0.001484
vt 0.497097 0.000001
vt 0.497097 0.001484
vt 0.498066 0.000001
vt 0.498066 0.001484
vt 0.499035 0.000001
vt 0.499035 0.001484
vt 0.500004 0.000001
vt 0.500004 0.001484
vt 1.000000 0.000001
vt 1.000000 0.001484
vt 0.999031 0.001484
vt 0.999031 0.000001
vt 0.998062 0.001484
vt 0.998062 0.000001
vt 0.997093 0.001484
vt 0.997093 0.000001
vt 0.996124 0.001484
vt 0.996124 0.000001
vt 0.995156 0.001484
vt 0.995156 0.000001
vt 0.994186 0.001484
vt 0.994186 0.000001
vt 0.993218 0.001484
vt 0.993218 0.000001
vt 0.992249 0.001484
vt 0.992249 0.000001
vt 0.991280 0.001484
vt 0.991280 0.000001
vt 0.990311 0.001484
vt 0.990311 0.000001
vt 0.989342 0.001484
vt 0.989342 0.000001
vt 0.988373 0.001484
vt 0.988373 0.000001
vt 0.987404 0.001484
vt 0.987404 0.000001
vt 0.986435 0.001484
vt 0.986435 0.000001
vt 0.985467 0.001484
vt 0.985467 0.000001
vt 0.193099 0.000000
vt 0.193099 0.001483
vt 0.194067 0.000000
vt 0.194067 0.001483
vt 0.195036 0.000000
vt 0.195036 0.001483
vt 0.196005 0.000000
vt 0.196005 0.001483
vt 0.196974 0.000000
vt 0.196974 0.001483
vt 0.197943 0.000000
vt 0.197943 0.001483
vt 0.198912 0.000000
vt 0.198912 0.001483
vt 0.199881 0.000000
vt 0.199881 0.001483
vt 0.200850 0.000000
vt 0.200850 0.001483
vt 0.201819 0.000000
vt 0.201819 0.001483
vt 0.202788 0.000000
vt 0.202788 0.001483
vt 0.203757 0.000000
vt 0.203757 0.001483
vt 0.204725 0.000000
vt 0.204725 0.001483
vt 0.205694 0.000000
vt 0.205694 0.001483
vt 0.206663 0.000000
vt 0.206663 0.001483
vt 0.692126 0.001484
vt 0.692126 0.000001
vt 0.693095 0.000001
vt 0.693095 0.001484
vt 0.694064 0.000001
vt 0.694064 0.001484
vt 0.695033 0.000001
vt 0.695033 0.001484
vt 0.696001 0.000001
vt 0.696002 0.001484
vt 0.696970 0.000001
vt 0.696970 0.001484
vt 0.697939 0.000001
vt 0.697939 0.001484
vt 0.698908 0.000001
vt 0.698908 0.001484
vt 0.699877 0.000001
vt 0.699877 0.001484
vt 0.700846 0.000001
vt 0.700846 0.001484
vt 0.701815 0.000001
vt 0.701815 0.001484
vt 0.702784 0.000001
vt 0.702784 0.001484
vt 0.703753 0.000001
vt 0.703753 0.001484
vt 0.704722 0.000001
vt 0.704722 0.001484
vt 0.705691 0.000001
vt 0.705691 0.001484
vt 0.706659 0.000001
vt 0.706659 0.001484
s 0
f 86/1/1 88/2/1 89/3/1 90/4/1 91/5/1 92/6/1 93/7/1 94/8/1 95/9/1 96/10/1 97/11/1 98/12/1 99/13/1 100/14/1 101/15/1 102/16/1 87/17/1 18/18/1 20/19/1 21/20/1 22/21/1 23/22/1 24/23/1 25/24/1 26/25/1 27/26/1 28/27/1 29/28/1 30/29/1 31/30/1 32/31/1 33/32/1 34/33/1 19/34/1 52/35/1 54/36/1 55/37/1 56/38/1 57/39/1 58/40/1 59/41/1 60/42/1 61/43/1 62/44/1 63/45/1 64/46/1 65/47/1 66/48/1 67/49/1 68/50/1 53/51/1 120/52/1 122/53/1 123/54/1 124/55/1 125/56/1 126/57/1 127/58/1 128/59/1 129/60/1 130/61/1 131/62/1 132/63/1 133/64/1 134/65/1 135/66/1 136/67/1 121/68/1
f 121/69/2 103/70/2 70/71/2 86/72/2
f 53/73/3 35/74/3 104/75/3 120/76/3
f 1/77/4 3/78/4 4/79/4 5/80/4 6/81/4 7/82/4 8/83/4 9/84/4 10/85/4 11/86/4 12/87/4 13/88/4 14/89/4 15/90/4 16/91/4 17/92/4 2/93/4 69/94/4 71/95/4 72/96/4 73/97/4 74/98/4 75/99/4 76/100/4 77/101/4 78/102/4 79/103/4 80/104/4 81/105/4 82/106/4 83/107/4 84/108/4 85/109/4 70/110/4 103/111/4 105/112/4 106/113/4 107/114/4 108/115/4 109/116/4 110/117/4 111/118/4 112/119/4 113/120/4 114/121/4 115/122/4 116/123/4 117/124/4 118/125/4 119/126/4 104/127/4 35/128/4 37/129/4 38/130/4 39/131/4 40/132/4 41/133/4 42/134/4 43/135/4 44/136/4 45/137/4 46/138/4 47/139/4 48/140/4 49/141/4 50/142/4 51/143/4 36/144/4
f 19/145/5 1/146/5 36/147/5 52/148/5
f 1/146/6 19/145/6 34/149/6 3/150/6
f 3/150/7 34/149/7 33/151/7 4/152/7
f 4/152/8 33/151/8 32/153/8 5/154/8
f 5/154/9 32/153/9 31/155/9 6/156/9
f 6/156/10 31/155/10 30/157/10 7/158/10
f 7/158/11 30/157/11 29/159/11 8/160/11
f 8/160/12 29/159/12 28/161/12 9/162/12
f 9/162/13 28/161/13 27/163/13 10/164/13
f 10/164/14 27/163/14 26/165/14 11/166/14
f 11/166/15 26/165/15 25/167/15 12/168/15
f 12/168/16 25/167/16 24/169/16 13/170/16
f 13/170/17 24/169/17 23/171/17 14/172/17
f 14/172/18 23/171/18 22/173/18 15/174/18
f 15/174/19 22/173/19 21/175/19 16/176/19
f 16/176/20 21/175/20 20/177/20 17/178/20
f 17/178/21 20/177/21 18/179/21 2/180/21
f 120/181/22 104/182/22 119/183/22 122/184/22
f 122/184/23 119/183/23 118/185/23 123/186/23
f 123/186/24 118/185/24 117/187/24 124/188/24
f 124/188/25 117/187/25 116/189/25 125/190/25
f 125/190/26 116/189/26 115/191/26 126/192/26
f 126/192/27 115/191/27 114/193/27 127/194/27
f 127/194/28 114/193/28 113/195/28 128/196/28
f 128/196/29 113/195/29 112/197/29 129/198/29
f 129/198/30 112/197/30 111/199/30 130/200/30
f 130/200/31 111/199/31 110/201/31 131/202/31
f 131/202/32 110/201/32 109/203/32 132/204/32
f 132/204/33 109/203/33 108/205/33 133/206/33
f 133/206/34 108/205/34 107/207/34 134/208/34
f 134/208/35 107/207/35 106/209/35 135/210/35
f 135/210/36 106/209/36 105/211/36 136/212/36
f 136/212/37 105/211/37 103/70/37 121/69/37
f 35/74/38 53/73/38 68/213/38 37/214/38
f 37/214/39 68/213/39 67/215/39 38/216/39
f 38/216/40 67/215/40 66/217/40 39/218/40
f 39/218/41 66/217/41 65/219/41 40/220/41
f 40/220/42 65/219/42 64/221/42 41/222/42
f 41/222/43 64/221/43 63/223/43 42/224/43
f 42/224/44 63/223/44 62/225/44 43/226/44
f 43/226/45 62/225/45 61/227/45 44/228/45
f 44/228/46 61/227/46 60/229/46 45/230/46
f 45/230/47 60/229/47 59/231/47 46/232/47
f 46/232/48 59/231/48 58/233/48 47/234/48
f 47/234/49 58/233/49 57/235/49 48/236/49
f 48/236/50 57/235/50 56/237/50 49/238/50
f 49/238/51 56/237/51 55/239/51 50/240/51
f 50/240/52 55/239/52 54/241/52 51/242/52
f 51/242/53 54/241/53 52/148/53 36/147/53
f 69/243/54 87/244/54 102/245/54 71/246/54
f 71/246/55 102/245/55 101/247/55 72/248/55
f 72/248/56 101/247/56 100/249/56 73/250/56
f 73/250/57 100/249/57 99/251/57 74/252/57
f 74/252/58 99/251/58 98/253/58 75/254/58
f 75/254/59 98/253/59 97/255/59 76/256/59
f 76/256/60 97/255/60 96/257/60 77/258/60
f 77/258/61 96/257/61 95/259/61 78/260/61
f 78/260/62 95/259/62 94/261/62 79/262/62
f 79/262/63 94/261/63 93/263/63 80/264/63
f 80/264/64 93/263/64 92/265/64 81/266/64
f 81/266/65 92/265/65 91/267/65 82/268/65
f 82/268/66 91/267/66 90/269/66 83/270/66
f 83/270/67 90/269/67 89/271/67 84/272/67
f 84/272/68 89/271/68 88/273/68 85/274/68
f 85/274/69 88/273/69 86/72/69 70/71/69
f 87/244/70 69/243/70 2/180/70 18/179/70
